# xmcd CD database file
#
# Track frame offsets:
#	150
#	84907
#	220769
#
# Disc length: 4791 seconds
#
# Revision: 1
# Processed by: cddbd v1.4PL0 Copyright (c) Steve Scherf et al.
# Submitted via: CDex 1.50Beta7
#
DISCID=1b12b503
DTITLE=Felipe, o Bom - The Conquerors Mix
DYEAR=2002
DGENRE=New Age
TTITLE0=Jogo
TTITLE1=Música - AOK
TTITLE2=Música - TC
EXTD=YEAR: 2002
EXTT0=
EXTT1=
EXTT2=
PLAYORDER=
